<?xml version="1.0" standalone="yes"?>

<svg version="1.1" viewBox="0.0 0.0 960.0 540.0" fill="none" stroke="none" stroke-linecap="square" stroke-miterlimit="10" xmlns="http://www.w3.org/2000/svg" xmlns:xlink="http://www.w3.org/1999/xlink"><clipPath id="g213ae4b3c6_0_0.0"><path d="m0 0l960.0 0l0 540.0l-960.0 0l0 -540.0z" clip-rule="nonzero"></path></clipPath><g clip-path="url(#g213ae4b3c6_0_0.0)"><path fill="#000000" fill-opacity="0.0" d="m0 0l960.0 0l0 540.0l-960.0 0z" fill-rule="evenodd"></path><path fill="#062b38" d="m306.4252 119.726l0 0c0 -14.295052 11.588409 -25.883476 25.883484 -25.883476l295.38266 0c6.864685 0 13.448242 2.7269974 18.302368 7.581093c4.854065 4.8540955 7.5811157 11.437653 7.5811157 18.302383l0 300.54803c0 14.295044 -11.58844 25.883453 -25.883484 25.883453l-295.38266 0c-14.295074 0 -25.883484 -11.588409 -25.883484 -25.883453z" fill-rule="evenodd"></path><path stroke="#062b38" stroke-width="1.0" stroke-linejoin="round" stroke-linecap="butt" d="m306.4252 119.726l0 0c0 -14.295052 11.588409 -25.883476 25.883484 -25.883476l295.38266 0c6.864685 0 13.448242 2.7269974 18.302368 7.581093c4.854065 4.8540955 7.5811157 11.437653 7.5811157 18.302383l0 300.54803c0 14.295044 -11.58844 25.883453 -25.883484 25.883453l-295.38266 0c-14.295074 0 -25.883484 -11.588409 -25.883484 -25.883453z" fill-rule="evenodd"></path><path fill="#22686d" d="m340.18896 332.93735l0 0c0 -9.149841 7.4174194 -16.56726 16.56726 -16.56726l245.95209 0c4.393921 0 8.607849 1.7454529 11.714844 4.852417c3.1069336 3.106964 4.852417 7.320923 4.852417 11.714844l0 66.26706c0 9.149841 -7.4174194 16.56726 -16.56726 16.56726l-245.95209 0c-9.149841 0 -16.56726 -7.4174194 -16.56726 -16.56726z" fill-rule="evenodd"></path><path stroke="#22686d" stroke-width="1.0" stroke-linejoin="round" stroke-linecap="butt" d="m340.18896 332.93735l0 0c0 -9.149841 7.4174194 -16.56726 16.56726 -16.56726l245.95209 0c4.393921 0 8.607849 1.7454529 11.714844 4.852417c3.1069336 3.106964 4.852417 7.320923 4.852417 11.714844l0 66.26706c0 9.149841 -7.4174194 16.56726 -16.56726 16.56726l-245.95209 0c-9.149841 0 -16.56726 -7.4174194 -16.56726 -16.56726z" fill-rule="evenodd"></path><path fill="#eb680a" d="m500.0315 218.24702l0 0c0 -7.1697083 5.812195 -12.981888 12.981873 -12.981888l92.71338 0c3.4430542 0 6.745056 1.3677216 9.179626 3.8023071c2.4345703 2.4345703 3.8023071 5.736557 3.8023071 9.179581l0 51.92598c0 7.1697083 -5.812195 12.981903 -12.981934 12.981903l-92.71338 0c-7.1696777 0 -12.981873 -5.812195 -12.981873 -12.981903z" fill-rule="evenodd"></path><path stroke="#eb680a" stroke-width="1.0" stroke-linejoin="round" stroke-linecap="butt" d="m500.0315 218.24702l0 0c0 -7.1697083 5.812195 -12.981888 12.981873 -12.981888l92.71338 0c3.4430542 0 6.745056 1.3677216 9.179626 3.8023071c2.4345703 2.4345703 3.8023071 5.736557 3.8023071 9.179581l0 51.92598c0 7.1697083 -5.812195 12.981903 -12.981934 12.981903l-92.71338 0c-7.1696777 0 -12.981873 -5.812195 -12.981873 -12.981903z" fill-rule="evenodd"></path><path fill="#eb680a" d="m340.18896 136.19699l0 0c0 -3.9602966 3.2104492 -7.170746 7.170746 -7.170746l104.33569 0c1.9017944 0 3.725708 0.75549316 5.070465 2.1002655c1.3447876 1.3447723 2.1002808 3.168686 2.1002808 5.0704803l0 28.682129c0 3.9602966 -3.2104492 7.170746 -7.170746 7.170746l-104.33569 0c-3.9602966 0 -7.170746 -3.2104492 -7.170746 -7.170746z" fill-rule="evenodd"></path><path stroke="#eb680a" stroke-width="1.0" stroke-linejoin="round" stroke-linecap="butt" d="m340.18896 136.19699l0 0c0 -3.9602966 3.2104492 -7.170746 7.170746 -7.170746l104.33569 0c1.9017944 0 3.725708 0.75549316 5.070465 2.1002655c1.3447876 1.3447723 2.1002808 3.168686 2.1002808 5.0704803l0 28.682129c0 3.9602966 -3.2104492 7.170746 -7.170746 7.170746l-104.33569 0c-3.9602966 0 -7.170746 -3.2104492 -7.170746 -7.170746z" fill-rule="evenodd"></path><path fill="#eb680a" d="m500.0315 136.19699l0 0c0 -3.9602966 3.2104492 -7.170746 7.170746 -7.170746l104.33566 0c1.9017944 0 3.725708 0.75549316 5.0704956 2.1002655c1.3447876 1.3447723 2.1002808 3.168686 2.1002808 5.0704803l0 28.682129c0 3.9602966 -3.2104492 7.170746 -7.1707764 7.170746l-104.33566 0c-3.9602966 0 -7.170746 -3.2104492 -7.170746 -7.170746z" fill-rule="evenodd"></path><path stroke="#eb680a" stroke-width="1.0" stroke-linejoin="round" stroke-linecap="butt" d="m500.0315 136.19699l0 0c0 -3.9602966 3.2104492 -7.170746 7.170746 -7.170746l104.33566 0c1.9017944 0 3.725708 0.75549316 5.0704956 2.1002655c1.3447876 1.3447723 2.1002808 3.168686 2.1002808 5.0704803l0 28.682129c0 3.9602966 -3.2104492 7.170746 -7.1707764 7.170746l-104.33566 0c-3.9602966 0 -7.170746 -3.2104492 -7.170746 -7.170746z" fill-rule="evenodd"></path><path fill="#d34716" d="m372.47244 215.67448l0 0c0 -5.7490845 4.660553 -10.409653 10.409668 -10.409653l65.57437 0c2.7608032 0 5.408539 1.0967255 7.3607483 3.0489197c1.952179 1.9521942 3.0489197 4.59993 3.0489197 7.360733l0 41.637375c0 5.749115 -4.6605835 10.409668 -10.409668 10.409668l-65.57437 0c-5.749115 0 -10.409668 -4.660553 -10.409668 -10.409668z" fill-rule="evenodd"></path><path stroke="#eb680a" stroke-width="1.0" stroke-linejoin="round" stroke-linecap="butt" d="m372.47244 215.67448l0 0c0 -5.7490845 4.660553 -10.409653 10.409668 -10.409653l65.57437 0c2.7608032 0 5.408539 1.0967255 7.3607483 3.0489197c1.952179 1.9521942 3.0489197 4.59993 3.0489197 7.360733l0 41.637375c0 5.749115 -4.6605835 10.409668 -10.409668 10.409668l-65.57437 0c-5.749115 0 -10.409668 -4.660553 -10.409668 -10.409668z" fill-rule="evenodd"></path><path fill="#d34716" d="m356.33072 223.39102l0 0c0 -5.7490845 4.660553 -10.409653 10.409637 -10.409653l65.5744 0c2.7608032 0 5.408539 1.0967255 7.3607483 3.0489197c1.952179 1.952179 3.0488892 4.59993 3.0488892 7.360733l0 41.63739c0 5.7490845 -4.660553 10.409637 -10.409637 10.409637l-65.5744 0c-5.7490845 0 -10.409637 -4.660553 -10.409637 -10.409637z" fill-rule="evenodd"></path><path stroke="#eb680a" stroke-width="1.0" stroke-linejoin="round" stroke-linecap="butt" d="m356.33072 223.39102l0 0c0 -5.7490845 4.660553 -10.409653 10.409637 -10.409653l65.5744 0c2.7608032 0 5.408539 1.0967255 7.3607483 3.0489197c1.952179 1.952179 3.0488892 4.59993 3.0488892 7.360733l0 41.63739c0 5.7490845 -4.660553 10.409637 -10.409637 10.409637l-65.5744 0c-5.7490845 0 -10.409637 -4.660553 -10.409637 -10.409637z" fill-rule="evenodd"></path><path fill="#eb680a" d="m340.18896 231.09181l0 0c0 -5.7490997 4.6605835 -10.409653 10.409668 -10.409653l65.5744 0c2.7608032 0 5.408539 1.0967255 7.360718 3.0489197c1.9522095 1.952179 3.0489197 4.5999146 3.0489197 7.360733l0 41.637375c0 5.7490845 -4.660553 10.409668 -10.409637 10.409668l-65.5744 0c-5.7490845 0 -10.409668 -4.6605835 -10.409668 -10.409668z" fill-rule="evenodd"></path><path stroke="#d34716" stroke-width="1.0" stroke-linejoin="round" stroke-linecap="butt" d="m340.18896 231.09181l0 0c0 -5.7490997 4.6605835 -10.409653 10.409668 -10.409653l65.5744 0c2.7608032 0 5.408539 1.0967255 7.360718 3.0489197c1.9522095 1.952179 3.0489197 4.5999146 3.0489197 7.360733l0 41.637375c0 5.7490845 -4.660553 10.409668 -10.409637 10.409668l-65.5744 0c-5.7490845 0 -10.409668 -4.6605835 -10.409668 -10.409668z" fill-rule="evenodd"></path><path fill="#000000" fill-opacity="0.0" d="m340.18896 316.3701l279.0866 0l0 99.40158l-279.0866 0z" fill-rule="evenodd"></path><path fill="#ffffff" d="m425.80197 361.069l0 3.78125l4.484375 0l0 1.578125l-4.484375 0l0 4.890625l6.15625 0l0 1.671875l-8.015625 0l0 -13.59375l8.125 0l0 1.671875l-6.265625 0zm11.571228 12.109375l-0.453125 0l-4.265625 -10.15625l1.9375 0l2.625 6.96875l2.671875 -6.96875l1.84375 0l-4.359375 10.15625zm13.933716 -4.984375l-7.171875 0q0 1.75 0.96875 2.6875q0.84375 0.8125 2.15625 0.8125q1.515625 0 2.53125 -0.890625l0.734375 1.28125q-0.40625 0.40625 -1.25 0.703125q-1.046875 0.390625 -2.359375 0.390625q-1.859375 0 -3.171875 -1.265625q-1.453125 -1.40625 -1.453125 -3.78125q0 -2.453125 1.484375 -3.9375q1.34375 -1.328125 3.171875 -1.328125q2.125 0 3.328125 1.203125q1.171875 1.140625 1.171875 3.046875q0 0.59375 -0.140625 1.078125zm-4.28125 -3.84375q-1.171875 0 -1.96875 0.765625q-0.765625 0.71875 -0.875 1.796875l5.5 0q0 -1.0625 -0.65625 -1.78125q-0.734375 -0.78125 -2.0 -0.78125zm12.190918 8.640625l0 -5.78125q0 -1.578125 -0.484375 -2.21875q-0.46875 -0.640625 -1.59375 -0.640625q-0.59375 0 -1.25 0.375q-0.65625 0.359375 -1.015625 0.875l0 7.390625l-1.765625 0l0 -9.9375l1.203125 0l0.5625 1.28125q0.875 -1.46875 2.84375 -1.46875q3.265625 0 3.265625 3.96875l0 6.15625l-1.765625 0zm4.7247925 -8.546875l-1.15625 0l0 -1.390625l1.15625 0l0 -2.078125l1.75 -0.671875l0 2.75l2.734375 0l0 1.390625l-2.734375 0l0 4.9375q0 1.25 0.421875 1.78125q0.421875 0.53125 1.359375 0.53125q0.6875 0 1.40625 -0.34375l0.265625 1.546875q-1.09375 0.28125 -2.40625 0.28125q-1.1875 0 -2.0 -0.875q-0.796875 -0.875 -0.796875 -2.21875l0 -5.640625zm11.579956 5.828125l1.625 0q0.21875 1.234375 1.46875 1.234375q1.25 0 1.75 -0.53125q0.515625 -0.53125 0.515625 -2.984375l0 -8.59375l1.84375 0l0 8.515625q0 2.78125 -0.90625 4.03125q-0.890625 1.234375 -3.1875 1.234375q-1.328125 0 -2.1875 -0.78125q-0.84375 -0.796875 -0.921875 -2.125zm9.047119 -2.265625q0 -2.3125 1.234375 -3.71875q1.234375 -1.421875 3.265625 -1.421875q2.125 0 3.296875 1.359375q1.1875 1.359375 1.1875 3.78125q0 2.390625 -1.203125 3.78125q-1.203125 1.390625 -3.28125 1.390625q-2.125 0 -3.3125 -1.390625q-1.1875 -1.40625 -1.1875 -3.78125zm1.84375 0q0 3.734375 2.65625 3.734375q1.234375 0 1.921875 -1.0q0.703125 -1.0 0.703125 -2.734375q0 -3.703125 -2.625 -3.703125q-1.21875 0 -1.9375 0.984375q-0.71875 0.984375 -0.71875 2.71875zm10.480103 -4.953125l0 6.34375q0 2.296875 2.0 2.296875q0.875 0 1.59375 -0.5q0.71875 -0.5 0.953125 -1.15625l0 -6.984375l1.765625 0l0 9.9375l-1.765625 0l0 -1.375q-0.296875 0.59375 -1.203125 1.078125q-0.890625 0.484375 -1.734375 0.484375q-1.640625 0 -2.515625 -0.9375q-0.859375 -0.9375 -0.859375 -2.671875l0 -6.515625l1.765625 0zm13.927887 1.703125q-0.578125 -0.40625 -1.15625 -0.40625q-0.9375 0 -1.640625 0.875q-0.703125 0.859375 -0.703125 2.0625l0 5.703125l-1.765625 0l0 -9.9375l1.765625 0l0 1.59375q0.96875 -1.78125 2.859375 -1.78125q0.484375 0 1.375 0.171875l-0.734375 1.71875zm7.9542847 8.234375l0 -5.78125q0 -1.578125 -0.484375 -2.21875q-0.46875 -0.640625 -1.59375 -0.640625q-0.59375 0 -1.25 0.375q-0.65625 0.359375 -1.015625 0.875l0 7.390625l-1.765625 0l0 -9.9375l1.203125 0l0.5625 1.28125q0.875 -1.46875 2.84375 -1.46875q3.265625 0 3.265625 3.96875l0 6.15625l-1.765625 0zm9.6935425 -1.140625q-1.046875 1.328125 -3.234375 1.328125q-1.171875 0 -2.03125 -0.84375q-0.84375 -0.859375 -0.84375 -2.125q0 -1.5 1.3125 -2.546875q1.328125 -1.046875 3.375 -1.046875q0.5625 0 1.265625 0.25q0 -2.421875 -2.15625 -2.421875q-1.65625 0 -2.546875 0.890625l-0.734375 -1.46875q0.5 -0.40625 1.375 -0.703125q0.890625 -0.296875 1.703125 -0.296875q2.15625 0 3.140625 0.984375q0.984375 0.984375 0.984375 3.125l0 3.5625q0 1.3125 0.765625 1.75l0 0.875q-1.0625 0 -1.609375 -0.296875q-0.53125 -0.3125 -0.765625 -1.015625zm-0.15625 -3.734375q-0.84375 -0.1875 -1.171875 -0.1875q-1.34375 0 -2.1875 0.6875q-0.84375 0.6875 -0.84375 1.625q0 1.546875 1.828125 1.546875q1.34375 0 2.375 -1.28125l0 -2.390625zm4.489319 2.0625l0 -11.203125l1.765625 0l0 10.90625q0 0.796875 0.453125 1.265625q0.46875 0.453125 1.203125 0.453125l0 1.578125q-3.421875 0 -3.421875 -3.0z" fill-rule="nonzero"></path><path fill="#000000" fill-opacity="0.0" d="m515.6011 222.16798l86.39368 0l0 45.54329l-86.39368 0z" fill-rule="evenodd"></path><path fill="#000000" fill-opacity="0.0" d="m340.18896 129.02625l118.677185 0l0 43.02362l-118.677185 0z" fill-rule="evenodd"></path><path fill="#ffffff" d="m388.92288 156.94624l-0.28125 1.8125q-4.859375 0 -6.375 -2.703125q-0.296875 0.125 -1.234375 0.125q-2.578125 0 -4.03125 -2.0q-1.4375 -2.015625 -1.4375 -5.140625q0 -2.953125 1.46875 -4.9375q1.46875 -1.984375 4.0 -1.984375q2.828125 0 4.328125 1.828125q1.515625 1.828125 1.515625 5.09375q0 4.671875 -2.796875 6.421875q1.0 1.484375 3.390625 1.484375l1.453125 0zm-7.890625 -13.15625q-1.734375 0 -2.640625 1.40625q-0.890625 1.40625 -0.890625 3.84375q0 2.328125 0.921875 3.90625q0.921875 1.5625 2.609375 1.5625q1.90625 0 2.890625 -1.453125q1.0 -1.453125 1.0 -4.015625q0 -5.25 -3.890625 -5.25zm9.310669 2.21875l0 6.34375q0 2.296875 2.0 2.296875q0.875 0 1.59375 -0.5q0.71875 -0.5 0.953125 -1.15625l0 -6.984375l1.765625 0l0 9.9375l-1.765625 0l0 -1.375q-0.296875 0.59375 -1.203125 1.078125q-0.890625 0.484375 -1.734375 0.484375q-1.640625 0 -2.515625 -0.9375q-0.859375 -0.9375 -0.859375 -2.671875l0 -6.515625l1.765625 0zm16.896637 5.140625l-7.171875 0q0 1.75 0.96875 2.6875q0.84375 0.8125 2.15625 0.8125q1.515625 0 2.53125 -0.890625l0.734375 1.28125q-0.40625 0.40625 -1.25 0.703125q-1.046875 0.390625 -2.359375 0.390625q-1.859375 0 -3.171875 -1.265625q-1.453125 -1.40625 -1.453125 -3.78125q0 -2.453125 1.484375 -3.9375q1.34375 -1.328125 3.171875 -1.328125q2.125 0 3.328125 1.203125q1.171875 1.140625 1.171875 3.046875q0 0.59375 -0.140625 1.078125zm-4.28125 -3.84375q-1.171875 0 -1.96875 0.765625q-0.765625 0.71875 -0.875 1.796875l5.5 0q0 -1.0625 -0.65625 -1.78125q-0.734375 -0.78125 -2.0 -0.78125zm11.487793 0.40625q-0.578125 -0.40625 -1.15625 -0.40625q-0.9375 0 -1.640625 0.875q-0.703125 0.859375 -0.703125 2.0625l0 5.703125l-1.765625 0l0 -9.9375l1.765625 0l0 1.59375q0.96875 -1.78125 2.859375 -1.78125q0.484375 0 1.375 0.171875l-0.734375 1.71875zm5.6417847 9.921875q-0.34375 0.953125 -1.453125 1.578125q-1.09375 0.625 -2.4375 0.625l0 -1.578125q1.09375 0 1.875 -0.515625q0.796875 -0.5 0.796875 -1.25q0 -0.8125 -0.296875 -1.609375q-0.28125 -0.796875 -0.734375 -1.96875l-2.6875 -6.90625l1.796875 0l2.921875 7.6875l2.625 -7.6875l1.8125 0l-4.21875 11.625z" fill-rule="nonzero"></path><path fill="#000000" fill-opacity="0.0" d="m500.58267 129.02625l118.677155 0l0 43.02362l-118.677155 0z" fill-rule="evenodd"></path><path fill="#ffffff" d="m528.7177 144.3643l-0.625 1.59375q-0.890625 -0.65625 -2.796875 -0.65625q-1.78125 0 -2.875 1.546875q-1.078125 1.53125 -1.078125 3.96875q0 2.3125 1.109375 3.765625q1.109375 1.4375 2.859375 1.4375q1.921875 0 2.953125 -1.359375l1.015625 1.421875q-1.609375 1.609375 -4.15625 1.609375q-2.671875 0 -4.203125 -1.921875q-1.515625 -1.921875 -1.515625 -5.0625q0 -3.046875 1.625 -5.0625q1.640625 -2.015625 4.21875 -2.015625q2.21875 0 3.46875 0.734375zm1.7060547 8.109375q0 -2.3125 1.234375 -3.71875q1.234375 -1.421875 3.265625 -1.421875q2.125 0 3.296875 1.359375q1.1875 1.359375 1.1875 3.78125q0 2.390625 -1.203125 3.78125q-1.203125 1.390625 -3.28125 1.390625q-2.125 0 -3.3125 -1.390625q-1.1875 -1.40625 -1.1875 -3.78125zm1.84375 0q0 3.734375 2.65625 3.734375q1.234375 0 1.921875 -1.0q0.703125 -1.0 0.703125 -2.734375q0 -3.703125 -2.625 -3.703125q-1.21875 0 -1.9375 0.984375q-0.71875 0.984375 -0.71875 2.71875zm20.308167 4.984375l0 -6.296875q0 -2.34375 -2.03125 -2.34375q-0.640625 0 -1.203125 0.40625q-0.546875 0.390625 -0.75 0.890625l0 7.34375l-1.765625 0l0 -7.0625q0 -0.734375 -0.546875 -1.15625q-0.546875 -0.421875 -1.46875 -0.421875q-0.515625 0 -1.125 0.40625q-0.59375 0.40625 -0.84375 0.90625l0 7.328125l-1.765625 0l0 -9.9375l1.15625 0l0.578125 1.15625q1.03125 -1.34375 2.546875 -1.34375q2.140625 0 3.0 1.328125q0.296875 -0.5625 1.09375 -0.9375q0.8125 -0.390625 1.671875 -0.390625q1.53125 0 2.375 0.921875q0.84375 0.90625 0.84375 2.5625l0 6.640625l-1.765625 0zm15.486145 0l0 -6.296875q0 -2.34375 -2.03125 -2.34375q-0.640625 0 -1.203125 0.40625q-0.546875 0.390625 -0.75 0.890625l0 7.34375l-1.765625 0l0 -7.0625q0 -0.734375 -0.546875 -1.15625q-0.546875 -0.421875 -1.46875 -0.421875q-0.515625 0 -1.125 0.40625q-0.59375 0.40625 -0.84375 0.90625l0 7.328125l-1.765625 0l0 -9.9375l1.15625 0l0.578125 1.15625q1.03125 -1.34375 2.546875 -1.34375q2.140625 0 3.0 1.328125q0.296875 -0.5625 1.09375 -0.9375q0.8125 -0.390625 1.671875 -0.390625q1.53125 0 2.375 0.921875q0.84375 0.90625 0.84375 2.5625l0 6.640625l-1.765625 0zm9.59552 -1.140625q-1.046875 1.328125 -3.234375 1.328125q-1.171875 0 -2.03125 -0.84375q-0.84375 -0.859375 -0.84375 -2.125q0 -1.5 1.3125 -2.546875q1.328125 -1.046875 3.375 -1.046875q0.5625 0 1.265625 0.25q0 -2.421875 -2.15625 -2.421875q-1.65625 0 -2.546875 0.890625l-0.734375 -1.46875q0.5 -0.40625 1.375 -0.703125q0.890625 -0.296875 1.703125 -0.296875q2.15625 0 3.140625 0.984375q0.984375 0.984375 0.984375 3.125l0 3.5625q0 1.3125 0.765625 1.75l0 0.875q-1.0625 0 -1.609375 -0.296875q-0.53125 -0.3125 -0.765625 -1.015625zm-0.15625 -3.734375q-0.84375 -0.1875 -1.171875 -0.1875q-1.34375 0 -2.1875 0.6875q-0.84375 0.6875 -0.84375 1.625q0 1.546875 1.828125 1.546875q1.34375 0 2.375 -1.28125l0 -2.390625zm10.458069 4.875l0 -5.78125q0 -1.578125 -0.484375 -2.21875q-0.46875 -0.640625 -1.59375 -0.640625q-0.59375 0 -1.25 0.375q-0.65625 0.359375 -1.015625 0.875l0 7.390625l-1.765625 0l0 -9.9375l1.203125 0l0.5625 1.28125q0.875 -1.46875 2.84375 -1.46875q3.265625 0 3.265625 3.96875l0 6.15625l-1.765625 0zm10.3810425 -0.015625l0 -0.734375q-0.90625 0.921875 -2.671875 0.921875q-1.859375 0 -3.015625 -1.328125q-1.15625 -1.34375 -1.15625 -3.5625q0 -2.234375 1.328125 -3.8125q1.34375 -1.59375 3.1875 -1.59375q1.53125 0 2.328125 0.734375l0 -4.625l1.765625 0l0 14.0l-1.765625 0zm0 -7.625q-0.65625 -1.0 -1.828125 -1.0q-1.40625 0 -2.296875 1.0625q-0.875 1.0625 -0.875 2.6875q0 3.59375 3.265625 3.59375q0.421875 0 1.0 -0.265625q0.59375 -0.265625 0.734375 -0.5625l0 -5.515625z" fill-rule="nonzero"></path><path fill="#000000" fill-opacity="0.0" d="m500.02887 205.26509l118.677185 0l0 77.889755l-118.677185 0z" fill-rule="evenodd"></path><path fill="#ffffff" d="m528.16394 227.03622l-0.625 1.59375q-0.890625 -0.65625 -2.796875 -0.65625q-1.78125 0 -2.875 1.546875q-1.078125 1.53125 -1.078125 3.96875q0 2.3125 1.109375 3.765625q1.109375 1.4375 2.859375 1.4375q1.921875 0 2.953125 -1.359375l1.015625 1.421875q-1.609375 1.609375 -4.15625 1.609375q-2.671875 0 -4.203125 -1.921875q-1.515625 -1.921875 -1.515625 -5.0625q0 -3.046875 1.625 -5.0625q1.640625 -2.015625 4.21875 -2.015625q2.21875 0 3.46875 0.734375zm1.7059937 8.109375q0 -2.3125 1.234375 -3.71875q1.234375 -1.421875 3.265625 -1.421875q2.125 0 3.296875 1.359375q1.1875 1.359375 1.1875 3.78125q0 2.390625 -1.203125 3.78125q-1.203125 1.390625 -3.28125 1.390625q-2.125 0 -3.3125 -1.390625q-1.1875 -1.40625 -1.1875 -3.78125zm1.84375 0q0 3.734375 2.65625 3.734375q1.234375 0 1.921875 -1.0q0.703125 -1.0 0.703125 -2.734375q0 -3.703125 -2.625 -3.703125q-1.21875 0 -1.9375 0.984375q-0.71875 0.984375 -0.71875 2.71875zm20.308228 4.984375l0 -6.296875q0 -2.34375 -2.03125 -2.34375q-0.640625 0 -1.203125 0.40625q-0.546875 0.390625 -0.75 0.890625l0 7.34375l-1.765625 0l0 -7.0625q0 -0.734375 -0.546875 -1.15625q-0.546875 -0.421875 -1.46875 -0.421875q-0.515625 0 -1.125 0.40625q-0.59375 0.40625 -0.84375 0.90625l0 7.328125l-1.765625 0l0 -9.9375l1.15625 0l0.578125 1.15625q1.03125 -1.34375 2.546875 -1.34375q2.140625 0 3.0 1.328125q0.296875 -0.5625 1.09375 -0.9375q0.8125 -0.390625 1.671875 -0.390625q1.53125 0 2.375 0.921875q0.84375 0.90625 0.84375 2.5625l0 6.640625l-1.765625 0zm15.486145 0l0 -6.296875q0 -2.34375 -2.03125 -2.34375q-0.640625 0 -1.203125 0.40625q-0.546875 0.390625 -0.75 0.890625l0 7.34375l-1.765625 0l0 -7.0625q0 -0.734375 -0.546875 -1.15625q-0.546875 -0.421875 -1.46875 -0.421875q-0.515625 0 -1.125 0.40625q-0.59375 0.40625 -0.84375 0.90625l0 7.328125l-1.765625 0l0 -9.9375l1.15625 0l0.578125 1.15625q1.03125 -1.34375 2.546875 -1.34375q2.140625 0 3.0 1.328125q0.296875 -0.5625 1.09375 -0.9375q0.8125 -0.390625 1.671875 -0.390625q1.53125 0 2.375 0.921875q0.84375 0.90625 0.84375 2.5625l0 6.640625l-1.765625 0zm9.59552 -1.140625q-1.046875 1.328125 -3.234375 1.328125q-1.171875 0 -2.03125 -0.84375q-0.84375 -0.859375 -0.84375 -2.125q0 -1.5 1.3125 -2.546875q1.328125 -1.046875 3.375 -1.046875q0.5625 0 1.265625 0.25q0 -2.421875 -2.15625 -2.421875q-1.65625 0 -2.546875 0.890625l-0.734375 -1.46875q0.5 -0.40625 1.375 -0.703125q0.890625 -0.296875 1.703125 -0.296875q2.15625 0 3.140625 0.984375q0.984375 0.984375 0.984375 3.125l0 3.5625q0 1.3125 0.765625 1.75l0 0.875q-1.0625 0 -1.609375 -0.296875q-0.53125 -0.3125 -0.765625 -1.015625zm-0.15625 -3.734375q-0.84375 -0.1875 -1.171875 -0.1875q-1.34375 0 -2.1875 0.6875q-0.84375 0.6875 -0.84375 1.625q0 1.546875 1.828125 1.546875q1.34375 0 2.375 -1.28125l0 -2.390625zm10.458069 4.875l0 -5.78125q0 -1.578125 -0.484375 -2.21875q-0.46875 -0.640625 -1.59375 -0.640625q-0.59375 0 -1.25 0.375q-0.65625 0.359375 -1.015625 0.875l0 7.390625l-1.765625 0l0 -9.9375l1.203125 0l0.5625 1.28125q0.875 -1.46875 2.84375 -1.46875q3.265625 0 3.265625 3.96875l0 6.15625l-1.765625 0zm10.3810425 -0.015625l0 -0.734375q-0.90625 0.921875 -2.671875 0.921875q-1.859375 0 -3.015625 -1.328125q-1.15625 -1.34375 -1.15625 -3.5625q0 -2.234375 1.328125 -3.8125q1.34375 -1.59375 3.1875 -1.59375q1.53125 0 2.328125 0.734375l0 -4.625l1.765625 0l0 14.0l-1.765625 0zm0 -7.625q-0.65625 -1.0 -1.828125 -1.0q-1.40625 0 -2.296875 1.0625q-0.875 1.0625 -0.875 2.6875q0 3.59375 3.265625 3.59375q0.421875 0 1.0 -0.265625q0.59375 -0.265625 0.734375 -0.5625l0 -5.515625z" fill-rule="nonzero"></path><path fill="#ffffff" d="m546.33307 262.12997l-1.609375 -8.734375l-2.96875 8.921875l-0.46875 0l-3.046875 -8.921875l-1.578125 8.734375l-1.765625 0l2.546875 -13.59375l0.84375 0l3.234375 9.921875l2.984375 -9.921875l0.828125 0l2.765625 13.59375l-1.765625 0zm2.220459 -4.984375q0 -2.3125 1.234375 -3.71875q1.234375 -1.421875 3.265625 -1.421875q2.125 0 3.296875 1.359375q1.1875 1.359375 1.1875 3.78125q0 2.390625 -1.203125 3.78125q-1.203125 1.390625 -3.28125 1.390625q-2.125 0 -3.3125 -1.390625q-1.1875 -1.40625 -1.1875 -3.78125zm1.84375 0q0 3.734375 2.65625 3.734375q1.234375 0 1.921875 -1.0q0.703125 -1.0 0.703125 -2.734375q0 -3.703125 -2.625 -3.703125q-1.21875 0 -1.9375 0.984375q-0.71875 0.984375 -0.71875 2.71875zm15.105103 4.96875l0 -0.734375q-0.90625 0.921875 -2.671875 0.921875q-1.859375 0 -3.015625 -1.328125q-1.15625 -1.34375 -1.15625 -3.5625q0 -2.234375 1.328125 -3.8125q1.34375 -1.59375 3.1875 -1.59375q1.53125 0 2.328125 0.734375l0 -4.625l1.765625 0l0 14.0l-1.765625 0zm0 -7.625q-0.65625 -1.0 -1.828125 -1.0q-1.40625 0 -2.296875 1.0625q-0.875 1.0625 -0.875 2.6875q0 3.59375 3.265625 3.59375q0.421875 0 1.0 -0.265625q0.59375 -0.265625 0.734375 -0.5625l0 -5.515625zm12.472046 2.84375l-7.171875 0q0 1.75 0.96875 2.6875q0.84375 0.8125 2.15625 0.8125q1.515625 0 2.53125 -0.890625l0.734375 1.28125q-0.40625 0.40625 -1.25 0.703125q-1.046875 0.390625 -2.359375 0.390625q-1.859375 0 -3.171875 -1.265625q-1.453125 -1.40625 -1.453125 -3.78125q0 -2.453125 1.484375 -3.9375q1.34375 -1.328125 3.171875 -1.328125q2.125 0 3.328125 1.203125q1.171875 1.140625 1.171875 3.046875q0 0.59375 -0.140625 1.078125zm-4.28125 -3.84375q-1.171875 0 -1.96875 0.765625q-0.765625 0.71875 -0.875 1.796875l5.5 0q0 -1.0625 -0.65625 -1.78125q-0.734375 -0.78125 -2.0 -0.78125zm6.222168 5.828125l0 -11.203125l1.765625 0l0 10.90625q0 0.796875 0.453125 1.265625q0.46875 0.453125 1.203125 0.453125l0 1.578125q-3.421875 0 -3.421875 -3.0z" fill-rule="nonzero"></path><path fill="#000000" fill-opacity="0.0" d="m339.80316 220.68242l86.39368 0l0 62.45668l-86.39368 0z" fill-rule="evenodd"></path><path fill="#ffffff" d="m372.3953 248.83076l-0.28125 1.8125q-4.859375 0 -6.375 -2.703125q-0.296875 0.125 -1.234375 0.125q-2.578125 0 -4.03125 -2.0q-1.4375 -2.015625 -1.4375 -5.140625q0 -2.953125 1.46875 -4.9375q1.46875 -1.984375 4.0 -1.984375q2.828125 0 4.328125 1.828125q1.515625 1.828125 1.515625 5.09375q0 4.671875 -2.796875 6.421875q1.0 1.484375 3.390625 1.484375l1.453125 0zm-7.890625 -13.15625q-1.734375 0 -2.640625 1.40625q-0.890625 1.40625 -0.890625 3.84375q0 2.328125 0.921875 3.90625q0.921875 1.5625 2.609375 1.5625q1.90625 0 2.890625 -1.453125q1.0 -1.453125 1.0 -4.015625q0 -5.25 -3.890625 -5.25zm9.310669 2.21875l0 6.34375q0 2.296875 2.0 2.296875q0.875 0 1.59375 -0.5q0.71875 -0.5 0.953125 -1.15625l0 -6.984375l1.765625 0l0 9.9375l-1.765625 0l0 -1.375q-0.296875 0.59375 -1.203125 1.078125q-0.890625 0.484375 -1.734375 0.484375q-1.640625 0 -2.515625 -0.9375q-0.859375 -0.9375 -0.859375 -2.671875l0 -6.515625l1.765625 0zm16.896667 5.140625l-7.171875 0q0 1.75 0.96875 2.6875q0.84375 0.8125 2.15625 0.8125q1.515625 0 2.53125 -0.890625l0.734375 1.28125q-0.40625 0.40625 -1.25 0.703125q-1.046875 0.390625 -2.359375 0.390625q-1.859375 0 -3.171875 -1.265625q-1.453125 -1.40625 -1.453125 -3.78125q0 -2.453125 1.484375 -3.9375q1.34375 -1.328125 3.171875 -1.328125q2.125 0 3.328125 1.203125q1.171875 1.140625 1.171875 3.046875q0 0.59375 -0.140625 1.078125zm-4.28125 -3.84375q-1.171875 0 -1.96875 0.765625q-0.765625 0.71875 -0.875 1.796875l5.5 0q0 -1.0625 -0.65625 -1.78125q-0.734375 -0.78125 -2.0 -0.78125zm11.487793 0.40625q-0.578125 -0.40625 -1.15625 -0.40625q-0.9375 0 -1.640625 0.875q-0.703125 0.859375 -0.703125 2.0625l0 5.703125l-1.765625 0l0 -9.9375l1.765625 0l0 1.59375q0.96875 -1.78125 2.859375 -1.78125q0.484375 0 1.375 0.171875l-0.734375 1.71875zm5.6417847 9.921875q-0.34375 0.953125 -1.453125 1.578125q-1.09375 0.625 -2.4375 0.625l0 -1.578125q1.09375 0 1.875 -0.515625q0.796875 -0.5 0.796875 -1.25q0 -0.8125 -0.296875 -1.609375q-0.28125 -0.796875 -0.734375 -1.96875l-2.6875 -6.90625l1.796875 0l2.921875 7.6875l2.6250305 -7.6875l1.8125 0l-4.2187805 11.625z" fill-rule="nonzero"></path><path fill="#ffffff" d="m369.96558 269.83075l-1.609375 -8.734375l-2.96875 8.921875l-0.46875 0l-3.046875 -8.921875l-1.578125 8.734375l-1.765625 0l2.546875 -13.59375l0.84375 0l3.234375 9.921875l2.984375 -9.921875l0.828125 0l2.765625 13.59375l-1.765625 0zm2.2204895 -4.984375q0 -2.3125 1.234375 -3.71875q1.234375 -1.421875 3.265625 -1.421875q2.125 0 3.296875 1.359375q1.1875 1.359375 1.1875 3.78125q0 2.390625 -1.203125 3.78125q-1.203125 1.390625 -3.28125 1.390625q-2.125 0 -3.3125 -1.390625q-1.1875 -1.40625 -1.1875 -3.78125zm1.84375 0q0 3.734375 2.65625 3.734375q1.234375 0 1.921875 -1.0q0.703125 -1.0 0.703125 -2.734375q0 -3.703125 -2.625 -3.703125q-1.21875 0 -1.9375 0.984375q-0.71875 0.984375 -0.71875 2.71875zm15.105072 4.96875l0 -0.734375q-0.90625 0.921875 -2.671875 0.921875q-1.859375 0 -3.015625 -1.328125q-1.15625 -1.34375 -1.15625 -3.5625q0 -2.234375 1.328125 -3.8125q1.34375 -1.59375 3.1875 -1.59375q1.53125 0 2.328125 0.734375l0 -4.6249847l1.765625 0l0 13.999985l-1.765625 0zm0 -7.625q-0.65625 -1.0 -1.828125 -1.0q-1.40625 0 -2.296875 1.0625q-0.875 1.0625 -0.875 2.6875q0 3.59375 3.265625 3.59375q0.421875 0 1.0 -0.265625q0.59375 -0.265625 0.734375 -0.5625l0 -5.515625zm12.472076 2.84375l-7.171875 0q0 1.75 0.96875 2.6875q0.84375 0.8125 2.15625 0.8125q1.515625 0 2.53125 -0.890625l0.734375 1.28125q-0.40625 0.40625 -1.25 0.703125q-1.046875 0.390625 -2.359375 0.390625q-1.859375 0 -3.171875 -1.265625q-1.453125 -1.40625 -1.453125 -3.78125q0 -2.453125 1.484375 -3.9375q1.34375 -1.328125 3.171875 -1.328125q2.125 0 3.328125 1.203125q1.171875 1.140625 1.171875 3.046875q0 0.59375 -0.140625 1.078125zm-4.28125 -3.84375q-1.171875 0 -1.96875 0.765625q-0.765625 0.71875 -0.875 1.796875l5.5 0q0 -1.0625 -0.65625 -1.78125q-0.734375 -0.78125 -2.0 -0.78125zm6.222168 5.828125l0 -11.20311l1.7656555 0l0 10.906235q0 0.796875 0.453125 1.265625q0.46875 0.453125 1.203125 0.453125l0 1.578125q-3.4219055 0 -3.4219055 -3.0z" fill-rule="nonzero"></path><path fill="#d34716" d="m566.1181 177.90158l0 10.755905l6.1968384 0l-12.393677 10.755905l-12.393677 -10.755905l6.1968384 0l0 -10.755905z" fill-rule="evenodd"></path><path stroke="#eb680a" stroke-width="1.0" stroke-linejoin="round" stroke-linecap="butt" d="m566.1181 177.90158l0 10.755905l6.1968384 0l-12.393677 10.755905l-12.393677 -10.755905l6.1968384 0l0 -10.755905z" fill-rule="evenodd"></path><path fill="#d34716" d="m405.7244 177.90027l0 10.755905l6.196869 0l-12.393707 10.755905l-12.393707 -10.755905l6.196869 0l0 -10.755905z" fill-rule="evenodd"></path><path stroke="#eb680a" stroke-width="1.0" stroke-linejoin="round" stroke-linecap="butt" d="m405.7244 177.90027l0 10.755905l6.196869 0l-12.393707 10.755905l-12.393707 -10.755905l6.196869 0l0 -10.755905z" fill-rule="evenodd"></path><path fill="#d34716" d="m564.99475 289.00656l0 10.75592l6.1968384 0l-12.393677 10.75589l-12.393738 -10.75589l6.1968994 0l0 -10.75592z" fill-rule="evenodd"></path><path stroke="#eb680a" stroke-width="1.0" stroke-linejoin="round" stroke-linecap="butt" d="m564.99475 289.00656l0 10.75592l6.1968384 0l-12.393677 10.75589l-12.393738 -10.75589l6.1968994 0l0 -10.75592z" fill-rule="evenodd"></path><path fill="#d34716" d="m393.33072 310.5105l0 -10.75589l-6.196869 0l12.393707 -10.75592l12.393707 10.75592l-6.196869 0l0 10.75589z" fill-rule="evenodd"></path><path stroke="#eb680a" stroke-width="1.0" stroke-linejoin="round" stroke-linecap="butt" d="m393.33072 310.5105l0 -10.75589l-6.196869 0l12.393707 -10.75592l12.393707 10.75592l-6.196869 0l0 10.75589z" fill-rule="evenodd"></path></g></svg>

